<svg xmlns="http://www.w3.org/2000/svg" width="41.035" height="41.035" viewBox="0 0 41.035 41.035">
  <g id="Group_1" data-name="Group 1" transform="translate(5.796 -0.218) rotate(11)">
    <path id="Shape" d="M15.909,35a15.766,15.766,0,0,1-6.617-1.455,5.548,5.548,0,0,1-7.838-7.837,15.828,15.828,0,0,1,1-15.089,15.993,15.993,0,0,1,6.37-5.754A5.59,5.59,0,0,1,10.638,1.4a5.524,5.524,0,0,1,6.872-.39,5.585,5.585,0,0,1,2,2.593A15.983,15.983,0,0,1,28.23,9.046a15.715,15.715,0,0,1,3.576,9.8,5.557,5.557,0,0,1-2.374,10.587,5.462,5.462,0,0,1-1.3-.168A15.874,15.874,0,0,1,15.909,35ZM5.568,23.864a5.575,5.575,0,0,1,5.568,5.568,5.468,5.468,0,0,1-.193,1.38,12.705,12.705,0,0,0,14.4-3.2,5.537,5.537,0,0,1,3.26-9.235A12.777,12.777,0,0,0,19.7,6.936,5.534,5.534,0,0,1,9.418,8.158,12.8,12.8,0,0,0,3.181,19.091a12.622,12.622,0,0,0,1.007,4.965A5.5,5.5,0,0,1,5.568,23.864Zm0,3.182a2.386,2.386,0,1,0,2.386,2.387A2.389,2.389,0,0,0,5.568,27.045Zm23.863-5.567a2.386,2.386,0,1,0,2.386,2.386A2.389,2.389,0,0,0,29.432,21.478ZM14.318,3.182A2.386,2.386,0,1,0,16.7,5.568,2.389,2.389,0,0,0,14.318,3.182Z" transform="translate(0.908 0.046)" fill="#177366"/>
  </g>
</svg>
