<svg id="bx-camera-alt" xmlns="http://www.w3.org/2000/svg" width="33" height="30" viewBox="0 0 33 30">
  <path id="Shape" d="M31.35,30H1.65A1.66,1.66,0,0,1,0,28.333V5A1.66,1.66,0,0,1,1.65,3.334h3.3V0h6.6V3.334H23.1V1.667h4.95V3.334h3.3A1.661,1.661,0,0,1,33,5V28.333A1.661,1.661,0,0,1,31.35,30ZM3.3,16.667v10H29.7v-10H23.1a6.723,6.723,0,0,1-6.6,6.666,6.722,6.722,0,0,1-6.6-6.666Zm13.2-3.334A3.333,3.333,0,0,0,16.5,20a3.333,3.333,0,0,0,0-6.666ZM16.5,10a6.652,6.652,0,0,1,5.655,3.334H29.7V6.666H3.3v6.667h7.546A6.652,6.652,0,0,1,16.5,10Z" fill="#177366"/>
  <path id="Path" d="M3.3,3.333V0H0L.016,3.333Z" transform="translate(24.75 8.333)" fill="#177366"/>
</svg>
