<svg xmlns="http://www.w3.org/2000/svg" width="34" height="34" viewBox="0 0 34 34">
  <g id="Group_4" data-name="Group 4" transform="translate(-107)">
    <path id="Shape" d="M17,34A17.228,17.228,0,0,1,0,17,17.228,17.228,0,0,1,17,0,17.228,17.228,0,0,1,34,17,17.228,17.228,0,0,1,17,34ZM6.48,25.5a13.794,13.794,0,0,0,9.245,5.034L18.63,25.5H6.48ZM25.5,20.408h0l-5.707,9.886A13.959,13.959,0,0,0,28.12,24.7L25.5,20.408ZM13.944,11.9l-3.3,4.94,2.929,5.26h7.016l2.884-4.995L20.3,11.9Zm-9.68.464A12.977,12.977,0,0,0,4.437,22.1H9.683ZM24.281,11.9l5.644,9.235A13.221,13.221,0,0,0,30.6,17a13.075,13.075,0,0,0-1.039-5.1ZM15.458,3.5A13.794,13.794,0,0,0,6.2,8.864L8.789,13.5,11.9,8.835V8.5h.225Zm3.99.143L16.21,8.5H27.519A13.793,13.793,0,0,0,19.448,3.643Z" transform="translate(107)" fill="#177366"/>
  </g>
</svg>
