<svg xmlns="http://www.w3.org/2000/svg" width="31" height="31" viewBox="0 0 31 31">
  <g id="Group_3" data-name="Group 3" transform="translate(-108)">
    <path id="Shape" d="M24.8,31a6.2,6.2,0,0,1-6.194-6.139H18.6V21.7H12.4v3.131A6.2,6.2,0,1,1,6.2,18.6H9.3V12.4H6.2a6.2,6.2,0,1,1,6.2-6.232l0,3.131h6.2V6.2a6.2,6.2,0,1,1,6.2,6.2H21.7v6.2h3.1a6.2,6.2,0,0,1,0,12.4Zm-3.1-9.3v3.1a3.1,3.1,0,1,0,3.1-3.1Zm-15.5,0a3.1,3.1,0,1,0,0,6.2,3.067,3.067,0,0,0,3.1-3.1V21.7Zm6.2-9.3v6.2h6.2V12.4ZM24.8,3.1a3.068,3.068,0,0,0-3.1,3.1V9.3h3.1a3.067,3.067,0,0,0,3.1-3.1A3.067,3.067,0,0,0,24.8,3.1ZM6.2,3.1A3.068,3.068,0,0,0,3.1,6.2,3.067,3.067,0,0,0,6.2,9.3H9.3V6.2A3.067,3.067,0,0,0,6.2,3.1Z" transform="translate(108)" fill="#177366"/>
  </g>
</svg>
