<svg xmlns="http://www.w3.org/2000/svg" width="32" height="32" viewBox="0 0 32 32">
  <g id="Group_2" data-name="Group 2" transform="translate(-108)">
    <path id="Shape" d="M32,32H21.945l3.771-3.771L20.076,22.59l2.514-2.514,5.639,5.639L32,21.945V32ZM10.055,32H0V21.945l3.771,3.771L9.41,20.076l2.514,2.514L6.285,28.229,10.053,32ZM22.59,11.923h0L20.076,9.41l5.639-5.639L21.945,0H32V10.055l-3.771-3.77-5.639,5.638Zm-13.181,0h0L3.771,6.285,0,10.055V0H10.055L6.285,3.771,11.923,9.41,9.41,11.922Z" transform="translate(108)" fill="#177366"/>
  </g>
</svg>
