<svg xmlns="http://www.w3.org/2000/svg" width="592.654" height="325.314" viewBox="0 0 592.654 325.314">
  <g id="Group_30" data-name="Group 30" transform="translate(-12.304 -12.074)">
    <g id="_7" data-name="7">
      <g id="Group_29" data-name="Group 29">
        <g id="Group_11" data-name="Group 11" transform="translate(322.517 54.511)">
          <path id="sq-path9" d="M11.309,11.526H178.327v96.483H11.309Z" fill="none" stroke="#707070" stroke-width="1"/>
        </g>
        <g id="Group_25" data-name="Group 25" transform="translate(29.603 47.502)">
          <path id="sq-path8" d="M19.77,21.646H98.743V109H19.77Z" fill="none" stroke="#707070" stroke-width="1"/>
        </g>
        <g id="Group_23" data-name="Group 23" transform="translate(171.386 6.23)">
          <path id="sq-path7" d="M14.44,15.479h96.124V121.146H14.44Z" fill="none" stroke="#707070" stroke-width="1"/>
        </g>
        <g id="Group_3" data-name="Group 3" transform="translate(537.528 130.826)">
          <path id="sq-path6" d="M20.237,20H66.93V69.424H20.237Z" fill="none" stroke="#707070" stroke-width="1"/>
        </g>
        <g id="Group_22" data-name="Group 22" transform="translate(352.899)">
          <path id="sq-path5" d="M14.734,12.574h99.208V29.989H14.734Z" fill="none" stroke="#707070" stroke-width="1"/>
        </g>
        <g id="Group_4" data-name="Group 4" transform="translate(537.528 251.529)">
          <path id="sq-path4" d="M12.407,13.441H35.771V85.359H12.407Z" fill="none" stroke="#707070" stroke-width="1"/>
        </g>
        <g id="Group_28" data-name="Group 28" transform="translate(394.187 196.239)">
          <path id="sq-path3" d="M22.125,19.144h79.489V85.093H22.125Z" fill="none" stroke="#707070" stroke-width="1"/>
        </g>
        <g id="Group_26" data-name="Group 26" transform="translate(0 199.354)">
          <path id="sq-path2" d="M12.8,11.82H127.645v65.66H12.8Z" fill="none" stroke="#707070" stroke-width="1"/>
        </g>
        <path id="sq-path1" d="M196.372,181.1H283.9v72.113H196.372Z" fill="none" stroke="#707070" stroke-width="1"/>
      </g>
    </g>
  </g>
</svg>
