<svg id="Group_29" data-name="Group 29" xmlns="http://www.w3.org/2000/svg" width="623.964" height="377.644" viewBox="0 0 623.964 377.644">
  <g id="Group_11" data-name="Group 11" transform="translate(322.517 54.511)">
    <path id="Path" d="M188.124,0H0V118.066H188.124Z" transform="translate(0.637 0.52)" fill="#f2f6f9"/>
    <path id="Shape" d="M166.785,96.058H0V0H166.785V96.058ZM3.244,3.241h0V92.817h160.3V3.241Z" transform="translate(11.309 11.526)" fill="#e2e6e8"/>
  </g>
  <path id="Path-2" data-name="Path" d="M86.083,0H0V89.657H86.083Z" transform="translate(195.743 287.986)" fill="#f2f6f9"/>
  <path id="Shape-2" data-name="Shape" d="M51.027,54.359H0V0H51.027V54.358ZM6.487,6.481v41.4H44.539V6.481Z" transform="translate(213.271 305.64)" fill="#e2e6e8"/>
  <path id="Path-3" data-name="Path" d="M114.951,0H0V53.641H114.951Z" transform="translate(374.063 317.857)" fill="#f2f6f9"/>
  <g id="Group_25" data-name="Group 25" transform="translate(29.603 47.502)">
    <path id="Path-4" data-name="Path" d="M116.614,0H0V129.376H116.614Z" transform="translate(0.713 0.427)" fill="#f2f6f9"/>
    <path id="Shape-3" data-name="Shape" d="M78.5,86.94H0V0H78.5V86.939ZM10.137,10.127h0V76.812H68.364V10.127H10.137Z" transform="translate(19.77 21.646)" fill="#e2e6e8"/>
  </g>
  <g id="Group_23" data-name="Group 23" transform="translate(171.386 6.23)">
    <path id="Path-5" data-name="Path" d="M124.82,0H0V135.015H124.82Z" transform="translate(0.03 0.567)" fill="#f2f6f9"/>
    <path id="Shape-4" data-name="Shape" d="M96,105.193H0V0H96V105.192ZM3.244,3.241v98.71H92.757V3.241Z" transform="translate(14.44 15.479)" fill="#e2e6e8"/>
  </g>
  <path id="Path-6" data-name="Path" d="M124.755,0H0V105.229H124.755Z" transform="translate(177.656 164.436)" fill="#f2f6f9"/>
  <g id="Group_3" data-name="Group 3" transform="translate(537.528 130.826)">
    <path id="Path-7" data-name="Path" d="M85.767,0H0V87.77H85.767Z" transform="translate(0.669 0.672)" fill="#f2f6f9"/>
    <path id="Shape-5" data-name="Shape" d="M46.628,49.118H0V0H46.628V49.117ZM6.893,6.887V42.23H39.735V6.887Z" transform="translate(20.236 19.999)" fill="#e2e6e8"/>
  </g>
  <path id="Path-8" data-name="Path" d="M44.414,0H0V67.8H44.414Z" transform="translate(540.569 42.445)" fill="#f2f6f9"/>
  <g id="Group_22" data-name="Group 22" transform="translate(352.899)">
    <path id="Path-9" data-name="Path" d="M128.271,0H0V42.38H128.271Z" transform="translate(0.182 0)" fill="#f2f6f9"/>
    <path id="Shape-6" data-name="Shape" d="M99.167,17.228H0V0H99.167V17.227ZM1.217,1.215v14.8H97.951V1.215Z" transform="translate(14.734 12.574)" fill="#e2e6e8"/>
  </g>
  <g id="Group_4" data-name="Group 4" transform="translate(537.528 251.529)">
    <path id="Path-10" data-name="Path" d="M46.782,0H0V98.217H46.782Z" transform="translate(0.669 0.312)" fill="#f2f6f9"/>
    <path id="Shape-7" data-name="Shape" d="M23.314,71.96H0V0H23.314ZM1.217,1.215V70.744H22.1V1.215Z" transform="translate(12.407 13.441)" fill="#e2e6e8"/>
  </g>
  <g id="Group_28" data-name="Group 28" transform="translate(394.187 196.239)">
    <path id="Path-11" data-name="Path" d="M122.262,0H0V102.446H122.262Z" transform="translate(0.668 0.761)" fill="#f2f6f9"/>
    <path id="Shape-8" data-name="Shape" d="M79.344,65.686H0V0H79.344V65.685ZM4.46,4.456V61.229H74.884V4.456Z" transform="translate(22.125 19.144)" fill="#e2e6e8"/>
  </g>
  <g id="Group_26" data-name="Group 26" transform="translate(0 199.354)">
    <path id="Path-12" data-name="Path" d="M140.674,0H0V88.154H140.674Z" transform="translate(0 0.587)" fill="#f2f6f9"/>
    <path id="Shape-9" data-name="Shape" d="M115.069,65.694H0V0H115.069V65.693ZM4.46,4.456V61.237H110.609V4.456Z" transform="translate(12.804 11.82)" fill="#e2e6e8"/>
  </g>
  <path id="Shape-10" data-name="Shape" d="M87.323,71.907H0V0H87.323V71.906ZM4.46,4.456V67.451h78.4V4.456Z" transform="translate(196.371 181.097)" fill="#e2e6e8"/>
  <path id="Path-13" data-name="Path" d="M81.842,0H0V48.274H81.842Z" transform="translate(94.816 308.678)" fill="#f2f6f9"/>
</svg>
